<?xml version="1.0" encoding="UTF-8" standalone="no"?>
<!-- Created with Inkscape (http://www.inkscape.org/) -->

<svg
   xmlns:dc="http://purl.org/dc/elements/1.1/"
   xmlns:cc="http://creativecommons.org/ns#"
   xmlns:rdf="http://www.w3.org/1999/02/22-rdf-syntax-ns#"
   xmlns:svg="http://www.w3.org/2000/svg"
   xmlns="http://www.w3.org/2000/svg"
   xmlns:sodipodi="http://sodipodi.sourceforge.net/DTD/sodipodi-0.dtd"
   xmlns:inkscape="http://www.inkscape.org/namespaces/inkscape"
   width="210mm"
   height="150mm"
   viewBox="0 0 744.09449 531.49606"
   id="svg2"
   version="1.1"
   inkscape:version="0.91 r13725"
   sodipodi:docname="honesty.svg"
   inkscape:export-filename="/Users/taboca/Desktop/all/40_courses_presentations/05_fastclip_pitches/adora/honesty.png"
   inkscape:export-xdpi="77.410004"
   inkscape:export-ydpi="77.410004">
  <defs
     id="defs4" />
  <sodipodi:namedview
     id="base"
     pagecolor="#ffffff"
     bordercolor="#666666"
     borderopacity="1.0"
     inkscape:pageopacity="0.0"
     inkscape:pageshadow="2"
     inkscape:zoom="0.98994949"
     inkscape:cx="330.97969"
     inkscape:cy="259.44048"
     inkscape:document-units="px"
     inkscape:current-layer="layer1"
     showgrid="false"
     inkscape:window-width="1440"
     inkscape:window-height="811"
     inkscape:window-x="0"
     inkscape:window-y="0"
     inkscape:window-maximized="1" />
  <metadata
     id="metadata7">
    <rdf:RDF>
      <cc:Work
         rdf:about="">
        <dc:format>image/svg+xml</dc:format>
        <dc:type
           rdf:resource="http://purl.org/dc/dcmitype/StillImage" />
        <dc:title></dc:title>
      </cc:Work>
    </rdf:RDF>
  </metadata>
  <g
     inkscape:label="Layer 1"
     inkscape:groupmode="layer"
     id="layer1"
     transform="translate(0,-520.86614)">
    <path
       style="opacity:1;fill:#000000;fill-opacity:1;stroke:none;stroke-width:5;stroke-miterlimit:4;stroke-dasharray:none;stroke-opacity:1"
       id="path4136"
       d="m 60.259702,965.20821 c 7.5235,-0.85735 15.03418,-1.82235 22.55496,-2.70236 19.722978,-2.3078 24.492228,-2.93416 45.539918,-4.43162 24.62631,-1.75206 38.24833,-2.17503 63.25801,-3.2788 46.54625,-1.38014 93.11629,-1.61279 139.67858,-1.90608 40.55099,-0.25544 61.54368,-0.57148 101.88537,0.21676 15.94458,0.31154 31.88131,0.9424 47.82197,1.41361 14.02446,0.60962 28.05553,1.08268 42.0734,1.82888 12.10376,0.6443 24.19412,1.52113 36.28716,2.3424 29.21403,1.98398 58.37402,4.25598 87.46933,7.55408 10.36571,1.39014 20.79413,2.47435 31.09034,4.34868 0,0 -5.69247,3.95853 -5.69247,3.95853 l 0,0 c -9.81857,-2.35831 -19.90111,-3.49555 -29.84385,-5.16016 -28.41369,-3.84092 -56.92179,-6.60879 -85.50043,-8.92779 -11.91632,-0.96695 -23.83254,-1.95121 -35.76389,-2.71058 -13.83799,-0.88071 -27.69283,-1.4729 -41.53925,-2.20935 -15.87025,-0.52078 -31.73588,-1.20965 -47.61076,-1.56235 -34.48302,-0.76612 -67.10974,-0.71976 -101.61753,-0.4078 -28.92428,0.26148 -71.45951,0.99129 -100.87255,1.81176 -13.52818,0.37736 -27.05082,0.93227 -40.57623,1.39841 -26.13809,1.29733 -38.22974,1.67518 -63.91523,3.78352 -19.78227,1.62379 -27.71991,2.62319 -46.515288,5.18212 -9.788,1.3326 -14.63481,2.11272 -23.59291,3.4999 0,0 5.38135,-4.04176 5.38135,-4.04176 z"
       inkscape:connector-curvature="0" />
    <path
       style="opacity:1;fill:#000000;fill-opacity:1;stroke:none;stroke-width:5;stroke-miterlimit:4;stroke-dasharray:none;stroke-opacity:1"
       id="path4140"
       d="m 89.837842,973.25328 c 0.971817,-30.34845 1.0696,-60.71865 1.162151,-91.08001 -0.05201,-37.67442 -0.154771,-75.34848 -0.582541,-113.02069 -0.07436,-10.29494 -0.388348,-20.58611 -0.527595,-30.87991 -0.04433,-2.24845 -0.04516,-4.49744 -0.07003,-6.74614 0.0053,-0.90979 -0.02174,-1.81953 -0.02172,-2.72914 0.07723,-3.70918 0.15461,-7.41939 0.235148,-11.12873 -0.301056,-24.78859 -0.827512,-49.57364 -1.237186,-74.36049 -0.254901,-16.63436 -0.480195,-33.26938 -0.830544,-49.90209 -0.223455,-3.5616 -0.133399,-1.94125 -0.281679,-4.86042 0,0 6.097555,-3.12517 6.097555,-3.12517 l 0,0 c -0.0078,2.98733 -0.02041,1.32468 0.06372,4.98768 -0.25261,16.78533 -0.246452,33.57375 -0.08144,50.35998 0.292998,24.65743 0.652646,49.32045 2.071141,73.94446 0.08059,3.62946 0.15804,7.25982 0.235148,10.8891 2e-5,0.917 -0.027,1.83412 -0.0217,2.75129 -0.0249,2.27249 -0.0259,4.54525 -0.07003,6.8175 -0.139745,10.473 -0.451519,20.94345 -0.527596,31.41756 -0.425098,37.87011 -0.531255,75.74202 -0.58254,113.61432 0.09163,29.96651 0.178574,59.94259 1.162146,89.89572 0,0 -6.19238,3.15518 -6.19238,3.15518 z"
       inkscape:connector-curvature="0" />
    <text
       xml:space="preserve"
       style="font-style:normal;font-weight:normal;font-size:30.45922089px;line-height:125%;font-family:sans-serif;text-align:end;letter-spacing:0px;word-spacing:0px;text-anchor:end;fill:#000000;fill-opacity:1;stroke:none;stroke-width:1px;stroke-linecap:butt;stroke-linejoin:miter;stroke-opacity:1"
       x="721.01172"
       y="907.04974"
       id="text4142"
       sodipodi:linespacing="125%"><tspan
         sodipodi:role="line"
         id="tspan4144"
         x="721.01172"
         y="907.04974">D.O.S.</tspan><tspan
         sodipodi:role="line"
         x="721.01172"
         y="926.90765"
         id="tspan4146"
         style="font-size:12.18368816px;text-align:end;text-anchor:end">(Degree of Separation)</tspan></text>
    <path
       style="opacity:1;fill:#000000;fill-opacity:1;stroke:none;stroke-width:5;stroke-miterlimit:4;stroke-dasharray:none;stroke-opacity:1"
       id="path4148"
       d="m 641.43701,951.03921 c 5.10312,3.32608 10.4068,6.27497 15.80695,9.08693 4.9663,2.84802 10.10972,5.36303 15.07763,8.2077 1.29684,0.76458 2.61093,1.50274 3.8816,2.31098 2.0958,1.4032 0.45591,0.25866 -5.30717,4.86068 -0.14975,0.11962 -0.38325,-0.0263 -0.57469,-0.0174 -0.37193,0.0173 -0.74299,0.0531 -1.11283,0.0959 -1.50932,0.17497 -2.37067,0.33934 -3.92131,0.59546 -7.64546,1.12277 -15.00628,3.36472 -22.19896,6.12952 -4.41919,1.74012 -8.68915,3.86512 -12.88632,6.08542 0,0 4.48382,-5.30022 4.48382,-5.30022 l 0,0 c 4.18169,-2.0609 8.35239,-4.17319 12.73161,-5.79059 7.28493,-2.73675 14.7402,-4.92401 22.43214,-6.1946 1.82018,-0.31307 15.79028,-2.67835 1.25323,4.40045 -1.1934,-0.86788 -2.46407,-1.62473 -3.7127,-2.40837 -4.88852,-2.92286 -9.95954,-5.50732 -14.90631,-8.32875 -5.45558,-2.85699 -10.8278,-5.84512 -16.14195,-8.95543 0,0 5.09526,-4.7777 5.09526,-4.7777 z"
       inkscape:connector-curvature="0" />
    <path
       inkscape:connector-curvature="0"
       d="m 74.032118,617.4424 c 2.76139,-5.42949 5.12631,-11.01806 7.34477,-16.68791 2.3007,-5.24234 4.25136,-10.62518 6.54856,-15.86876 0.62154,-1.37116 1.21497,-2.75664 1.88272,-4.10644 1.17107,-2.23382 0.20843,-0.48095 5.40025,4.75705 0.13495,0.1361 0.0148,0.38386 0.0442,0.57325 0.057,0.36795 0.13223,0.73306 0.21433,1.0962 0.33534,1.48196 0.590872,2.3208 1.011312,3.83517 1.93378,7.48158 4.94989,14.5605 8.46788,21.41634 2.20262,4.20781 4.77198,8.22609 7.42831,12.16181 0,0 -5.74922,-3.89143 -5.74922,-3.89143 l 0,0 c -2.49619,-3.93737 -5.0423,-7.85831 -7.11865,-12.0395 -3.49996,-6.95056 -6.471802,-14.12923 -8.557522,-21.64123 -0.50589,-1.77627 -4.35128,-15.4134 4.24123,-1.71654 -0.73531,1.27935 -1.35196,2.62366 -1.9976,3.94892 -2.38343,5.17301 -4.41089,10.49129 -6.68724,15.71137 -2.25731,5.72977 -4.65391,11.39068 -7.17821,17.00692 0,0 -5.29509,-4.55522 -5.29509,-4.55522 z"
       id="path4150"
       style="opacity:1;fill:#000000;fill-opacity:1;stroke:none;stroke-width:5;stroke-miterlimit:4;stroke-dasharray:none;stroke-opacity:1" />
    <text
       xml:space="preserve"
       style="font-style:normal;font-weight:normal;font-size:21.96912193px;line-height:125%;font-family:sans-serif;letter-spacing:0px;word-spacing:0px;fill:#000000;fill-opacity:1;stroke:none;stroke-width:1px;stroke-linecap:butt;stroke-linejoin:miter;stroke-opacity:1"
       x="-648.56964"
       y="798.71429"
       id="text4152"
       sodipodi:linespacing="125%"
       transform="matrix(0.70710678,-0.70710678,0.70710678,0.70710678,0,0)"><tspan
         sodipodi:role="line"
         id="tspan4154"
         x="-648.56964"
         y="798.71429"
         style="font-style:normal;font-variant:normal;font-weight:bold;font-stretch:normal;font-family:sans-serif;-inkscape-font-specification:'sans-serif Bold'">mom</tspan></text>
    <text
       transform="matrix(0.70710678,-0.70710678,0.70710678,0.70710678,0,0)"
       sodipodi:linespacing="125%"
       id="text4156"
       y="871.7912"
       x="-573.01184"
       style="font-style:normal;font-weight:normal;font-size:17.54034996px;line-height:125%;font-family:sans-serif;letter-spacing:0px;word-spacing:0px;fill:#000000;fill-opacity:1;stroke:none;stroke-width:1px;stroke-linecap:butt;stroke-linejoin:miter;stroke-opacity:1"
       xml:space="preserve"><tspan
         y="871.7912"
         x="-573.01184"
         id="tspan4158"
         sodipodi:role="line"
         style="font-style:normal;font-variant:normal;font-weight:bold;font-stretch:normal;font-family:sans-serif;-inkscape-font-specification:'sans-serif Bold'">friends</tspan></text>
    <text
       xml:space="preserve"
       style="font-style:normal;font-weight:normal;font-size:17.54034996px;line-height:125%;font-family:sans-serif;letter-spacing:0px;word-spacing:0px;fill:#000000;fill-opacity:1;stroke:none;stroke-width:1px;stroke-linecap:butt;stroke-linejoin:miter;stroke-opacity:1"
       x="-349.42612"
       y="1095.3771"
       id="text4160"
       sodipodi:linespacing="125%"
       transform="matrix(0.70710678,-0.70710678,0.70710678,0.70710678,0,0)"><tspan
         sodipodi:role="line"
         id="tspan4162"
         x="-349.42612"
         y="1095.3771"
         style="font-style:normal;font-variant:normal;font-weight:bold;font-stretch:normal;font-family:sans-serif;-inkscape-font-specification:'sans-serif Bold'">people</tspan></text>
    <text
       xml:space="preserve"
       style="font-style:normal;font-weight:normal;font-size:17.06074142px;line-height:125%;font-family:sans-serif;letter-spacing:0px;word-spacing:0px;fill:#000000;fill-opacity:1;stroke:none;stroke-width:1px;stroke-linecap:butt;stroke-linejoin:miter;stroke-opacity:1"
       x="79.672363"
       y="653.25885"
       id="text4164"
       sodipodi:linespacing="125%"><tspan
         sodipodi:role="line"
         x="79.672363"
         y="653.25885"
         id="tspan4168"
         style="font-style:normal;font-variant:normal;font-weight:bold;font-stretch:normal;font-family:sans-serif;-inkscape-font-specification:'sans-serif Bold';text-align:end;text-anchor:end">honesty</tspan><tspan
         sodipodi:role="line"
         x="79.672363"
         y="674.58478"
         style="font-style:normal;font-variant:normal;font-weight:bold;font-stretch:normal;font-family:sans-serif;-inkscape-font-specification:'sans-serif Bold';text-align:end;text-anchor:end"
         id="tspan4224">level</tspan></text>
    <path
       style="opacity:1;fill:#000000;fill-opacity:1;stroke:none;stroke-width:5;stroke-miterlimit:4;stroke-dasharray:none;stroke-opacity:1"
       d="m 105.24145,865.73621 c 40.69954,-7.08686 64.15502,-44.68854 86.99788,-75.24778 16.2564,-20.85779 36.28525,-44.79867 64.55311,-46.73226 47.13588,2.2644 78.93649,41.67145 118.61539,61.68832 26.39291,11.00307 53.79244,19.55627 81.0585,28.13139 44.7042,12.95015 108.45774,29.87253 169.61079,30.44541 5.38828,10.9121 -54.25397,-0.80754 -61.15305,-0.57288 -74.82566,-14.24033 -150.83216,-30.71008 -217.75809,-68.63785 -22.60324,-12.12326 -43.175,-27.53611 -64.08802,-42.20953 -20.14514,-11.29371 -46.72025,-5.90443 -62.06425,11.01941 -30.5115,28.16939 -48.11928,69.29127 -85.1578,90.48905 -8.57139,5.41395 -19.62765,18.3583 -30.61446,11.62672 z"
       id="path4170"
       inkscape:connector-curvature="0"
       sodipodi:nodetypes="cccccccccccc" />
    <path
       style="fill:none;fill-rule:evenodd;stroke:#000000;stroke-width:1px;stroke-linecap:butt;stroke-linejoin:miter;stroke-opacity:1"
       d="m 252.53814,760.63114 c -2.02031,179.80715 -3.03046,182.83761 -3.03046,182.83761 z"
       id="path4179"
       inkscape:connector-curvature="0" />
    <path
       inkscape:connector-curvature="0"
       id="path4181"
       d="m 133.34014,772.75297 c -2.02031,179.80715 -3.03046,182.83761 -3.03046,182.83761 z"
       style="fill:none;fill-rule:evenodd;stroke:#000000;stroke-width:1px;stroke-linecap:butt;stroke-linejoin:miter;stroke-opacity:1" />
    <path
       style="fill:none;fill-rule:evenodd;stroke:#000000;stroke-width:1px;stroke-linecap:butt;stroke-linejoin:miter;stroke-opacity:1"
       d="m 568.71589,773.76312 c -2.02031,179.80715 -3.03046,182.83761 -3.03046,182.83761 z"
       id="path4183"
       inkscape:connector-curvature="0" />
    <rect
       style="opacity:1;fill:#000000;fill-opacity:1;stroke:none;stroke-width:5;stroke-miterlimit:4;stroke-dasharray:none;stroke-opacity:1"
       id="rect4204"
       width="30.304577"
       height="30.304577"
       x="171.72594"
       y="605.95599"
       rx="165.714" />
    <rect
       rx="165.714"
       y="605.95599"
       x="452.54834"
       height="30.304577"
       width="30.304577"
       id="rect4206"
       style="opacity:1;fill:#ff0000;fill-opacity:1;stroke:none;stroke-width:5;stroke-miterlimit:4;stroke-dasharray:none;stroke-opacity:1" />
    <text
       xml:space="preserve"
       style="font-style:normal;font-weight:normal;font-size:18.27220917px;line-height:125%;font-family:sans-serif;letter-spacing:0px;word-spacing:0px;fill:#000000;fill-opacity:1;stroke:none;stroke-width:1px;stroke-linecap:butt;stroke-linejoin:miter;stroke-opacity:1"
       x="213.29047"
       y="626.19348"
       id="text4208"
       sodipodi:linespacing="125%"><tspan
         sodipodi:role="line"
         x="213.29047"
         y="626.19348"
         id="tspan4212"
         style="font-style:italic;font-variant:normal;font-weight:bold;font-stretch:normal;font-family:sans-serif;-inkscape-font-specification:'sans-serif Bold Italic'">free product</tspan></text>
    <text
       sodipodi:linespacing="125%"
       id="text4216"
       y="626.19348"
       x="496.13318"
       style="font-style:normal;font-weight:normal;font-size:18.27220917px;line-height:125%;font-family:sans-serif;letter-spacing:0px;word-spacing:0px;fill:#ff0000;fill-opacity:1;stroke:none;stroke-width:1px;stroke-linecap:butt;stroke-linejoin:miter;stroke-opacity:1"
       xml:space="preserve"><tspan
         style="font-style:italic;font-variant:normal;font-weight:bold;font-stretch:normal;font-family:sans-serif;-inkscape-font-specification:'sans-serif Bold Italic';fill:#ff0000"
         id="tspan4218"
         y="626.19348"
         x="496.13318"
         sodipodi:role="line">paid product</tspan></text>
    <path
       style="opacity:1;fill:#ff0000;fill-opacity:1;stroke:none;stroke-width:5;stroke-miterlimit:4;stroke-dasharray:none;stroke-opacity:1"
       d="m 126.22594,982.59452 c 11.90134,-53.55513 46.48833,-86.58169 82.82385,-100.4276 27.54393,-11.7277 37.18432,-11.4719 64.94261,-21.87415 47.71017,-13.81731 241.2837,-73.8965 318.06749,-172.19165 -82.35002,89.08029 -266.57906,151.16742 -342.38024,173.07455 -42.15527,11.46572 -55.85472,12.85235 -93.15408,47.6108 -21.05073,21.8443 -26.48491,45.84268 -30.29963,73.80805 z"
       id="path4242"
       inkscape:connector-curvature="0"
       sodipodi:nodetypes="ccccccc" />
  </g>
</svg>
